HIERARCHY
ROOT Hips
{
	OFFSET 0.000000 0.000000 0.000000
	CHANNELS 6 Xposition Yposition Zposition Xrotation Yrotation Zrotation
	JOINT LeftUpLeg_virtual
	{
		OFFSET 0.000000 0.000000 0.000000
		CHANNELS 3 Xrotation Yrotation Zrotation
		JOINT LeftUpLeg
		{
			OFFSET 13.026900 -6.336304 -1.092800
			CHANNELS 3 Xrotation Yrotation Zrotation
			JOINT LeftLeg
			{
				OFFSET 0.524474 -46.096886 9.782700
				CHANNELS 3 Xrotation Yrotation Zrotation
				JOINT LeftFoot
				{
					OFFSET -0.524474 -53.427422 -12.948200
					CHANNELS 3 Xrotation Yrotation Zrotation
					JOINT LeftToeBase
					{
						OFFSET 0.192200 -14.009700 16.364100
						CHANNELS 3 Xrotation Yrotation Zrotation
						JOINT LeftToe_End
						{
							OFFSET -1.784700 -0.561700 9.474800
							CHANNELS 3 Xrotation Yrotation Zrotation
							End Site
							{
								OFFSET 0 0 0
							}
						}
					}
				}
			}
		}
	}
	JOINT RightUpLeg_virtual
	{
		OFFSET 0.000000 0.000000 0.000000
		CHANNELS 3 Xrotation Yrotation Zrotation
		JOINT RightUpLeg
		{
			OFFSET -12.883000 -6.336304 -1.092800
			CHANNELS 3 Xrotation Yrotation Zrotation
			JOINT RightLeg
			{
				OFFSET -0.524587 -46.096825 9.782800
				CHANNELS 3 Xrotation Yrotation Zrotation
				JOINT RightFoot
				{
					OFFSET 0.524587 -53.427383 -12.948300
					CHANNELS 3 Xrotation Yrotation Zrotation
					JOINT RightToeBase
					{
						OFFSET -0.192200 -14.009700 16.364100
						CHANNELS 3 Xrotation Yrotation Zrotation
						JOINT RightToe_End
						{
							OFFSET 1.784700 -0.561700 9.474800
							CHANNELS 3 Xrotation Yrotation Zrotation
							End Site
							{
								OFFSET 0 0 0
							}
						}
					}
				}
			}
		}
	}
	JOINT Spine_virtual
	{
		OFFSET 0.000000 0.000000 0.000000
		CHANNELS 3 Xrotation Yrotation Zrotation
		JOINT Spine
		{
			OFFSET 0.072000 7.257294 -0.789700
			CHANNELS 3 Xrotation Yrotation Zrotation
			JOINT Spine1
			{
				OFFSET 0.000000 12.508769 -0.658067
				CHANNELS 3 Xrotation Yrotation Zrotation
				JOINT Spine1_split
				{
					OFFSET 0.000000 12.508769 -0.658067
					CHANNELS 3 Xrotation Yrotation Zrotation
					JOINT Spine2
					{
						OFFSET 0.000000 12.508769 -0.658067
						CHANNELS 3 Xrotation Yrotation Zrotation
						JOINT Neck_virtual
						{
							OFFSET 0.000000 0.000000 0.000000
							CHANNELS 3 Xrotation Yrotation Zrotation
							JOINT Neck
							{
								OFFSET 0.000000 14.033295 7.520400
								CHANNELS 3 Xrotation Yrotation Zrotation
								JOINT Head
								{
									OFFSET 0.000000 8.198502 5.703100
									CHANNELS 3 Xrotation Yrotation Zrotation
									JOINT HeadTop_End
									{
										OFFSET 0.000000 17.760803 13.332701
										CHANNELS 3 Xrotation Yrotation Zrotation
										End Site
										{
											OFFSET 0 0 0
										}
									}
								}
							}
						}
						JOINT LeftShoulder_virtual
						{
							OFFSET 0.000000 0.000000 0.000000
							CHANNELS 3 Xrotation Yrotation Zrotation
							JOINT LeftShoulder
							{
								OFFSET 6.292450 5.785301 -0.669000
								CHANNELS 3 Xrotation Yrotation Zrotation
								JOINT LeftShoulder_split
								{
									OFFSET 6.292450 5.785301 -0.669000
									CHANNELS 3 Xrotation Yrotation Zrotation
									JOINT LeftArm
									{
										OFFSET 13.907140 -6.093903 1.965100
										CHANNELS 3 Xrotation Yrotation Zrotation
										JOINT LeftForeArm
										{
											OFFSET 34.140198 0.000000 0.000000
											CHANNELS 3 Xrotation Yrotation Zrotation
											JOINT LeftHand
											{
												OFFSET 40.960209 0.000000 0.000000
												CHANNELS 3 Xrotation Yrotation Zrotation
												End Site
												{
													OFFSET 0 0 0
												}
											}
										}
									}
								}
							}
						}
						JOINT RightShoulder_virtual
						{
							OFFSET 0.000000 0.000000 0.000000
							CHANNELS 3 Xrotation Yrotation Zrotation
							JOINT RightShoulder
							{
								OFFSET -6.292450 5.785301 -0.669000
								CHANNELS 3 Xrotation Yrotation Zrotation
								JOINT RightShoulder_split
								{
									OFFSET -6.292450 5.785301 -0.669000
									CHANNELS 3 Xrotation Yrotation Zrotation
									JOINT RightArm
									{
										OFFSET -13.907140 -6.093903 1.965100
										CHANNELS 3 Xrotation Yrotation Zrotation
										JOINT RightForeArm
										{
											OFFSET -34.140198 0.000000 0.000000
											CHANNELS 3 Xrotation Yrotation Zrotation
											JOINT RightHand
											{
												OFFSET -40.960209 0.000000 0.000000
												CHANNELS 3 Xrotation Yrotation Zrotation
												End Site
												{
													OFFSET 0 0 0
												}
											}
										}
									}
								}
							}
						}
					}
				}
			}
		}
	}
}
MOTION
Frames: 11
Frame Time: 0.03333333
4.098428 101.220001 5.663837 0.000000 0.000000 0.000000 4.168681 -36.715976 1.576087 -50.219324 5.947970 19.033844 32.612285 -23.132719 -1.398985 -4.472894 -6.029428 -14.523702 -2.869875 -0.058541 -1.023462 0.000000 0.000000 0.000000 1.638563 -32.976693 1.298938 -24.297210 -6.257405 -33.311068 22.718123 -8.637214 0.587937 -8.479412 -16.172025 29.912329 -0.995631 -1.961969 1.253265 0.000000 0.000000 0.000000 0.207502 -35.210643 -0.744436 21.547403 -1.973261 -4.754930 5.719536 -1.857138 1.364231 6.002383 -21.352225 7.721651 0.000000 0.000000 0.000000 6.822074 -0.722415 -0.774770 17.410203 10.809691 15.208500 -33.508683 24.917205 21.472030 0.000000 0.000000 0.000000 8.797143 -1.231166 0.118143 -0.831322 -12.693131 -19.495226 -1.704159 -2.956942 -1.855677 -38.859569 30.616542 -15.369186 3.623667 -17.344499 -4.795132 0.000000 0.000000 0.000000 6.773189 -0.981183 0.002599 -0.376132 -14.409934 23.240998 -12.297888 -3.639754 0.654779 16.975832 14.853764 34.191924 5.043483 52.247942 8.325213 0.000000 0.000000 0.000000 
1.608982 102.516594 5.826714 0.000000 0.000000 0.000000 4.359346 -33.633573 1.862424 -49.774409 10.315900 18.934024 33.748757 -24.485760 -1.586714 -0.883489 -7.045819 -14.307169 -4.059616 -0.349116 -0.459631 0.000000 0.000000 0.000000 1.656950 -30.397716 1.899818 -20.937018 -4.069588 -29.643421 30.370310 -9.418849 0.856079 -10.878108 -16.138320 26.615024 2.175955 -1.806917 2.207238 0.000000 0.000000 0.000000 -0.006339 -31.987063 0.638916 19.437226 -1.746248 -5.110885 5.843697 -1.308246 1.645533 5.820007 -13.864083 7.123975 0.000000 0.000000 0.000000 5.642555 -0.408808 -0.536098 20.045572 10.077168 13.855367 -31.433681 23.435716 21.363947 0.000000 0.000000 0.000000 8.129199 -0.616235 0.178401 -0.327838 -10.161554 -19.672927 -0.714393 -1.622288 -0.809130 -42.196987 29.919162 -13.975876 2.094810 -24.247265 -5.482508 0.000000 0.000000 0.000000 6.378817 -0.501171 0.053561 -1.443564 -11.582661 23.497722 -12.906583 0.132267 1.106584 15.354388 16.218419 35.375121 5.992931 51.567884 8.024635 0.000000 0.000000 0.000000 
-1.783309 104.337425 6.107483 0.000000 0.000000 0.000000 4.158648 -24.842762 3.173306 -46.521385 15.308541 15.786041 30.092509 -25.356251 -3.519411 5.008942 -9.060769 -12.447673 -5.244357 -0.872400 0.747567 0.000000 0.000000 0.000000 1.874103 -22.538262 3.557456 -15.722858 -0.074867 -25.124870 41.446042 -7.544659 0.587340 -9.790867 -12.944464 26.873343 -6.661876 -1.100747 1.283551 0.000000 0.000000 0.000000 0.480430 -23.554469 3.050490 15.989683 -0.713650 -5.325326 4.903996 0.201586 2.487015 5.920461 -9.494141 4.910189 0.000000 0.000000 0.000000 3.585969 0.989439 0.448768 24.391277 9.064300 11.809760 -24.716400 19.557569 19.056653 0.000000 0.000000 0.000000 6.346429 1.159050 0.989531 0.245662 -6.448245 -18.942263 0.122229 -0.326618 -0.014657 -40.671898 26.208290 -14.269393 3.794407 -34.138412 -3.386300 0.000000 0.000000 0.000000 5.030620 1.160956 0.884840 -2.220427 -8.546876 24.426266 -12.106928 1.912936 0.084568 13.694826 16.925653 34.856310 10.368988 49.339381 5.093655 0.000000 0.000000 0.000000 
-5.227495 105.902908 6.851940 0.000000 0.000000 0.000000 3.338748 -12.926895 5.117369 -40.818587 19.064897 9.992206 23.286191 -25.131941 -6.353005 11.919988 -10.401657 -8.542139 -6.718528 -1.474012 2.072702 0.000000 0.000000 0.000000 1.982143 -11.086063 5.686069 -8.278970 4.730563 -19.944533 50.020098 -4.722125 -0.758318 -7.302576 -7.413892 27.807027 -25.859921 0.389046 -0.418472 0.000000 0.000000 0.000000 0.647719 -11.791207 5.824328 11.849988 0.927640 -5.209091 3.087460 2.390566 3.609993 5.135237 -6.950817 2.532944 0.000000 0.000000 0.000000 1.015111 3.151366 1.884300 29.019309 8.310969 9.431002 -15.573972 13.779419 15.938672 0.000000 0.000000 0.000000 3.787825 3.657830 2.145143 0.614370 -2.294408 -17.511572 1.123055 1.130263 0.852002 -36.529044 18.723388 -15.493635 8.401741 -40.312600 1.769000 0.000000 0.000000 0.000000 2.954738 3.614213 2.142808 -2.696658 -5.896797 25.427599 -10.066682 1.279132 -1.313990 13.010195 16.115768 32.319311 16.501476 45.068795 0.945415 0.000000 0.000000 0.000000 
-8.049994 106.932121 7.230652 0.000000 0.000000 0.000000 1.750259 0.138033 7.598578 -33.816226 20.181165 2.490612 15.783287 -24.194200 -8.742775 17.516565 -9.968553 -3.418833 -8.393663 -1.958817 2.919978 0.000000 0.000000 0.000000 0.809374 1.366886 7.606609 -0.160691 8.555526 -14.685043 53.489260 -3.195635 -2.057233 -3.339736 -1.057633 26.227935 -44.483181 2.579519 -1.349311 0.000000 0.000000 0.000000 -0.016875 1.625765 8.432365 7.749756 2.872859 -4.580309 0.752601 4.827105 4.618658 1.339200 -6.092253 0.420798 0.000000 0.000000 0.000000 -1.277695 5.600876 3.285586 32.343483 7.805850 6.583988 -6.933966 6.410416 13.268046 0.000000 0.000000 0.000000 0.967808 6.350307 3.233028 0.723501 1.946998 -15.382786 2.177638 2.894162 1.136660 -32.716743 7.450777 -15.535320 12.003728 -39.316731 7.137891 0.000000 0.000000 0.000000 0.566970 6.330584 3.423680 -2.853637 -3.511263 26.147540 -7.318484 0.135820 -2.101604 13.460332 13.714210 28.758430 22.481629 39.195420 -2.852759 0.000000 0.000000 0.000000 
-10.190816 107.094711 7.581512 0.000000 0.000000 0.000000 -0.883530 12.154214 10.254532 -27.240318 18.005244 -4.913118 9.984202 -23.286709 -9.703603 19.686316 -7.665104 2.008088 -8.914054 -2.133080 2.839386 0.000000 0.000000 0.000000 -1.654647 12.369572 9.555067 5.933424 10.177387 -10.033288 51.572887 -3.152668 -2.082070 2.453328 4.794421 22.458842 -56.073592 4.531482 -1.191099 0.000000 0.000000 0.000000 -1.477861 13.852948 10.468577 4.466418 4.714994 -3.556153 -1.714656 7.138492 5.179665 -1.529612 -7.045401 -0.685202 0.000000 0.000000 0.000000 -2.846720 7.992402 4.199149 33.228775 7.952111 3.180731 -0.963749 -1.619141 11.404705 0.000000 0.000000 0.000000 -1.509575 8.809674 3.905395 0.525876 5.861381 -12.705294 2.180626 5.019856 0.437268 -31.944545 -3.547844 -13.142910 10.322164 -31.321588 9.448682 0.000000 0.000000 0.000000 -1.617876 8.748893 4.255265 -2.729239 -1.288302 26.070624 -4.867366 0.368491 -2.403734 14.765091 10.507652 25.092800 26.974987 32.612494 -5.260368 0.000000 0.000000 0.000000 
-11.785215 106.809380 7.537930 0.000000 0.000000 0.000000 -4.305236 22.444060 12.904682 -22.326852 13.412134 -11.065323 6.775339 -23.430312 -9.388600 18.134830 -4.613876 6.481423 -7.640256 -2.014218 1.875024 0.000000 0.000000 0.000000 -4.839725 22.050813 11.522903 9.970790 9.651292 -6.598332 46.678343 -3.608798 -0.946389 8.988007 9.426882 18.308023 -63.209159 6.190113 -0.818240 0.000000 0.000000 0.000000 -3.181234 24.356945 11.838951 2.414162 6.309561 -2.374133 -3.655601 9.227818 5.217712 -1.630459 -7.467674 1.083949 0.000000 0.000000 0.000000 -3.708763 10.111545 4.462136 31.346265 9.042090 -0.489288 1.405807 -8.834261 9.926927 0.000000 0.000000 0.000000 -3.328285 10.891534 4.021059 0.076496 9.271961 -9.818737 2.744522 6.920861 0.053331 -34.371291 -10.383356 -9.244546 3.554768 -21.208801 9.252176 0.000000 0.000000 0.000000 -3.146053 10.736720 4.295380 -2.398234 1.072256 24.919611 -4.779535 0.921279 -1.722077 16.322289 7.305388 21.410232 29.471952 26.775752 -6.110392 0.000000 0.000000 0.000000 
-13.038134 106.649117 7.220516 0.000000 0.000000 0.000000 -8.410030 30.289717 15.484375 -19.943345 7.659366 -15.417555 6.169975 -25.454635 -8.122651 15.044904 -2.236268 8.003582 -5.255978 -1.655617 0.339886 0.000000 0.000000 0.000000 -8.547590 29.740286 13.461412 12.504715 8.229972 -4.430540 41.779564 -3.947083 0.630951 15.110327 12.709917 15.351188 -68.220332 8.020346 -0.909342 0.000000 0.000000 0.000000 -4.912780 32.645794 12.570462 1.888441 7.412343 -1.363921 -4.688926 10.928808 4.843834 -0.684219 -8.205224 3.399200 0.000000 0.000000 0.000000 -3.820698 11.700466 4.179359 27.459357 10.987899 -4.305014 -0.055406 -14.348889 8.318644 0.000000 0.000000 0.000000 -4.298659 12.510680 3.759951 -0.339037 12.133383 -7.262615 2.351238 7.776461 -0.868734 -38.309288 -10.493446 -4.263276 -5.562333 -14.949397 7.968094 0.000000 0.000000 0.000000 -3.755825 12.231435 3.705964 -1.886963 3.736615 22.710814 -6.379054 1.165901 -0.348061 16.937928 5.031122 17.199139 30.166159 23.031114 -5.855642 0.000000 0.000000 0.000000 
-13.967873 106.823151 6.835598 0.000000 0.000000 0.000000 -12.627011 35.209618 17.443536 -19.789696 2.550193 -17.904243 7.755864 -28.480869 -6.105229 13.575742 -0.932412 6.176943 -2.937096 -1.208080 -1.115054 0.000000 0.000000 0.000000 -12.274378 34.741122 15.135460 14.187112 7.272276 -3.358075 38.467431 -3.919943 2.078630 18.722054 14.335425 13.836558 -70.340061 10.144372 -1.650751 0.000000 0.000000 0.000000 -6.726795 38.363837 12.961507 2.817800 7.914270 -0.728887 -4.857642 12.098726 4.312536 2.082450 -8.800039 5.425405 0.000000 0.000000 0.000000 -3.419343 12.709878 3.724027 22.509355 14.031132 -7.769113 -4.712574 -17.041249 6.088115 0.000000 0.000000 0.000000 -4.587964 13.614381 3.388056 -0.570729 14.093949 -5.567275 0.291491 6.984396 -2.455631 -42.444059 -3.659674 1.577882 -14.951498 -14.817848 5.468608 0.000000 0.000000 0.000000 -3.603614 13.205782 2.789832 -1.123113 6.415636 19.769889 -8.427740 0.965336 1.641189 16.182917 4.050701 12.005881 29.141900 21.740644 -4.663221 0.000000 0.000000 0.000000 
-14.828950 107.634712 6.319706 0.000000 0.000000 0.000000 -16.125342 38.373669 18.720534 -20.381349 -0.356290 -19.370854 9.881737 -30.649494 -3.752252 14.427528 -0.566077 3.271256 -1.929510 -0.922339 -1.880411 0.000000 0.000000 0.000000 -16.065160 37.492438 16.371366 15.150475 7.167878 -2.974164 38.009576 -3.590184 3.001440 20.029060 14.349340 13.324207 -69.872576 12.415484 -2.989475 0.000000 0.000000 0.000000 -8.875577 42.074413 13.424988 4.729945 7.877656 -0.337848 -4.513564 12.767508 3.854977 4.583731 -9.379802 6.029171 0.000000 0.000000 0.000000 -2.787829 13.198289 3.349952 17.353511 17.915156 -10.406294 -10.494906 -16.322568 3.539643 0.000000 0.000000 0.000000 -4.604888 14.207931 3.068362 -0.587255 15.005046 -5.173384 -2.330912 4.746490 -3.249951 -46.947565 7.918156 7.542620 -23.014812 -18.825273 1.645287 0.000000 0.000000 0.000000 -3.164716 13.678040 1.933852 -0.138161 8.782933 16.900040 -10.250530 -0.195876 3.475918 13.894948 4.480819 6.708343 26.475439 21.652704 -2.457714 0.000000 0.000000 0.000000 
-16.213741 108.740433 5.793488 0.000000 0.000000 0.000000 -18.557522 40.549884 19.440269 -20.231580 -0.426945 -20.271115 11.034101 -30.861639 -1.501794 15.836277 -0.457297 2.011195 -2.241182 -0.832626 -1.957337 0.000000 0.000000 0.000000 -19.728187 38.645497 17.652142 14.772524 8.352719 -3.182457 40.317435 -2.491840 3.433649 20.993300 13.402762 13.413145 -68.812735 14.452410 -4.617430 0.000000 0.000000 0.000000 -11.477533 44.056954 14.079537 7.066510 7.320344 -0.166075 -4.062962 12.934280 3.494250 5.278848 -9.552780 4.588884 0.000000 0.000000 0.000000 -2.076301 13.239347 3.141726 12.575634 22.365946 -12.011045 -15.777063 -12.588352 1.332111 0.000000 0.000000 0.000000 -4.543615 14.294943 2.817974 -0.478646 14.976639 -5.792027 -4.102653 2.188248 -3.403574 -52.327896 20.638146 12.946888 -28.085734 -23.428705 -1.931321 0.000000 0.000000 0.000000 -2.781542 13.637271 1.424619 0.995462 10.986192 14.639759 -11.769172 -1.671584 3.940167 11.166709 6.441500 2.548562 22.500950 21.196734 0.525228 0.000000 0.000000 0.000000 
